<svg xmlns="http://www.w3.org/2000/svg" viewBox="0 0 621.454 815.42"><defs><style>.cls-1,.cls-2{fill:#f17227;}.cls-2{font-size:110px;font-family:Tangerine-Bold, Tangerine;font-weight:700;}</style></defs><g id="Layer_2" data-name="Layer 2"><g id="Layer_1-2" data-name="Layer 1"><path class="cls-1" d="M457.1,405.378c-1.643-2.085-2.563-3.123-3.339-4.259-3.556-5.2-1.78-10.386,4.425-10.915a133.532,133.532,0,0,1,23.574-.03c7.545.7,8.195,5.608,2.334,14.28,9.085,3.824,18.089,7.839,27.319,11.244,1.306.482,4.121-1.635,5.537-3.188,7.391-8.108,14.494-16.479,21.832-24.637a63.749,63.749,0,0,1,8.269-7.882c4.578-3.537,9.733-4.7,14.159-.008,4.468,4.733,2.888,9.768-1.043,14.022a111.353,111.353,0,0,1-9.059,8.088c-7.383,6.41-14.861,12.714-22.149,19.23-4.651,4.158-4.024,6.947,1.716,9.1,11.019,4.135,12.129,9.392,4.233,18.181-1.239,1.379-1.574,4.229-1.252,6.225.945,5.852,2.9,11.563,3.571,17.431.633,5.57.136,11.269.136,16.283l9.783,7.767c-2.906,3.218-5.367,7.046-8.8,9.542-11.558,8.412-23.376,16.475-35.254,24.435-13.32,8.925-28.3,12.157-44.137,12.208-8.113.025-16.229.038-24.337.284-11.752.357-21.894,4.332-29.44,13.773-2.531,3.165-4.936,6.454-7.717,9.384-1.092,1.15-3.056,1.473-4.623,2.173.071-1.663-.473-3.725.307-4.93,10.163-15.693,23.481-26.15,43.329-25.677,7.391.176,14.8-.32,22.19-.11a70.489,70.489,0,0,0,41.38-11.531c13.686-8.923,27.065-18.318,40.578-27.507l-1.077-3.011c-4.058.791-8.419.9-12.106,2.525a163.268,163.268,0,0,0-18.87,10.15c-19.143,11.673-39.492,10.717-60.219,6.092-1.664-.371-3.134-1.611-6.253-3.283,3.6-2.184,5.7-4.059,8.156-4.834,6.8-2.151,13.787-3.73,20.635-5.751,6.229-1.838,11.968-4.511,16.193-12.522-4.182.342-6.961.464-9.712.811-14.36,1.812-28.684,4.9-43.075,5.237-20.273.482-35.914,7.991-47.358,24.614-4.6,6.676-9.13,13.428-14.2,19.736-16.6,20.644-37.614,26.625-60.981,14.265-20.12-10.643-38.744-24.193-57.659-37-16.807-11.382-33.235-23.332-53.273-28.53-27.728-7.193-51.384-1.147-69.741,21.84-1.224,1.533-3.245,2.43-4.895,3.622l-1.678-1.207c.788-3.072,1.33-6.233,2.4-9.2,9.416-26.075,23.534-49.347,41.481-70.466,14.049-16.534,28.1-33.2,35.051-54.329,1.607-4.879,2.516-9.987,4.3-17.223-22.023,11.678-42.413,13.9-62.455.877-11.3-7.342-18.465-17.824-22.135-30.64-8.078-28.2,5.776-52.159,38.886-66.171-3.469-10.1-6.968-20.292-10.565-30.768-7.649,2.625-14.578,5.8-21.854,7.359a60.119,60.119,0,0,1-68.332-35.62c-11.017-26.695-1.176-57.777,23.634-74.187,3.758-2.486,7.7-5.279,11.945-6.316,7.872-1.921,9.839-6.989,11.144-14.168,10.15-55.845,64.5-90.659,119.4-76.419,5.921,1.536,8.923.089,12.65-4.2,13.5-15.526,29.606-26.884,50.8-29.223C329.932-3.9,362.575,26.239,361.564,65.69c-.468,18.269-7.119,33.968-20.219,46.618-3.94,3.8-4.35,6.755-2.318,11.687,6.8,16.515,12.791,33.364,19.554,49.9,4.038,9.87,10.732,18.992,12.974,29.168,2.5,11.371,1.438,23.552,1.68,35.385.081,3.956-.592,7.927-1.007,12.934l12.2-3.274,1.229,2.185-12.625,8.776c3.921,5.758,8.084,11.927,12.323,18.043a28.575,28.575,0,0,0,2.891,3.169c12.259,12.94,11.89,16.791-3.076,25.905-3.751,2.285-4.393,4.71-2.168,8.14,3,4.632,1.349,8.5.236,13.617-1.661,7.63-3.612,14.044-8.948,19.785-1.191,1.282.086,5.027.5,7.6,2.1,13.147-4.684,22.5-18.07,22.558-9.882.04-19.867-1.713-29.635-3.567-10.633-2.018-15.475-1.02-21.182,8.137a118.355,118.355,0,0,0-17.55,53.818c-.449,5.733,2.517,12.512,5.782,17.623,14.483,22.666,29.791,44.8,44.444,67.364,3.312,5.1,5.2,11.125,7.741,16.724q-1.475.816-2.95,1.631c-1.454-1.7-3.417-3.169-4.284-5.127a284.892,284.892,0,0,0-43.542-68.645c-12.031-14.2-14.931-28.511-10.358-46.2,5.5-21.262,11.419-35.268,24.966-50.109-13.722-6.411-27.578-12.6-34.895-26.527l1.354-2.016c1.708.95,3.806,1.541,5.068,2.9,19.946,21.557,46.022,27.717,73.786,28.764,10.8.408,15.466-6.313,13.712-16.846-1.124-6.75-1.989-13.063,5.419-17.643,1.383-.855-.218-6.533-.527-11.3a14.027,14.027,0,0,1,2.453-1.735c3.355-1.854,3.89-3.945,2.069-7.56-4.867-9.665-3.84-12.13,6.026-17.259,8.315-4.322,8.606-6,2.333-13.1q-4.266-4.824-8.452-9.718c-9.949-11.588-13.46-24.593-10.5-39.866,3.692-19.048-.533-39.233-9.389-50.53-.476.521-1.216.956-1.35,1.532-7.3,31.279-28.246,50.407-56.255,63.256-3.681,1.688-7.638,2.878-11.1,4.921-9.029,5.328-17.855,11-27.649,17.09-.448-.789-1.286-3.635-3.171-5.282-3.2-2.79-7.228-6.9-10.584-6.62-3.763.317-8.673,4.161-10.444,7.766-5.388,10.966,4.225,33.456,15.926,37.572,3.316,1.166,7.758-.867,14.2-1.8-2.582,3.188-3.705,5.772-5.643,6.76-8.5,4.335-14.284-1.636-20.609-6.589-2.511,6.748-3.961,13.631-7.421,19.285-6.3,10.287-15.3,19.135-20.353,29.9-5.046,10.747-4.708,24.137-10.212,34.525-7.956,15.018-18.492,28.806-28.947,42.33-12.711,16.442-25.663,32.614-34.353,51.677-1.242,2.724-2.289,5.537-3.966,9.623a26.149,26.149,0,0,0,3.832-1.545c26.064-18.116,53.357-16.1,79.962-2.726,16.5,8.289,31.464,19.649,47.012,29.792,12.972,8.463,25.457,17.733,38.814,25.519,6.818,3.974,14.923,6.15,22.722,7.938,13.2,3.028,24.758-1.451,33.707-11.109,6.931-7.48,12.232-16.452,19.008-24.1,6.4-7.222,13.865-13.5,20.662-20.383,1.361-1.379,3.007-4.068,2.517-5.433-4.189-11.672-2.5-23.069,1.086-34.365,1.273-4.014,1.217-6.626-2.3-9.892-6.2-5.749-3.7-13.2,4.485-15.631,2-.594,4.4-1.165,5.709-2.585C425.285,416.135,439.542,409,457.1,405.378ZM323.724,60.8l2.574.587c-.3,18.406-6.29,36.2-8.052,57.042,6.81-3.035,13.317-4.262,17.3-8.105a69.787,69.787,0,0,0,14.592-20.042c10.534-22.442,8.6-44.477-7.329-63.634C327.18,7.851,306.568.916,282.486,7.408c-21.757,5.866-36.116,21.218-48.653,38.9-6.466,9.118-13.083,18.278-20.782,26.319-4.946,5.167-11.864,8.534-18.167,12.254-1.593.94-4.213.141-6.361.141l-1-2.361c20.725-7.395,31.833-24.122,43.039-41.631-13.483-5.915-27.074-6.569-40.482-4.308-41.716,7.035-71.792,37.821-77.739,79.557-.977,6.858-3.544,9.548-9.8,11.648-24.9,8.363-42.138,32.877-40.4,56.4,3.089,41.876,46.041,65.19,82.94,44.977,1.361-.745,3.021-1.877,3.461-3.191,1.268-3.787-6.06-17.476-10.039-19.115-11.009-4.534-22.1-8.86-33.038-13.566-1.73-.745-2.792-3.039-4.163-4.617,2.1-.126,4.479-.956,6.265-.263,10.434,4.045,20.924,8.044,31,12.887,5.623,2.7,9.462,1.559,14.208-1.782,12.66-8.912,25.71-17.271,38.6-25.864,1.9-1.27,3.756-2.619,6.431-4.49-3.23-2.87-5.805-5.248-8.476-7.513-8.912-7.559-17.934-14.989-26.715-22.7-1.478-1.3-1.966-3.722-2.912-5.626,2,.512,4.473.448,5.937,1.629,10.944,8.836,21.853,17.734,32.413,27.021,3.862,3.4,6.795,3.654,11.355,1.289,16.7-8.66,33.5-17.171,50.611-24.968,5.368-2.445,6.329-5.071,5.235-10.24q-4.434-20.955-8.193-42.051c-.556-3.116.169-6.46.3-9.7,1.617,2.962,4.043,5.753,4.714,8.915,3.3,15.54,6.134,31.179,9.3,47.645,13.39-4.574,26-8.706,38.415-13.345,1.531-.572,2.559-3.748,2.963-5.88,2.929-15.438,5.583-30.928,8.475-46.373C321.646,65.13,322.87,63,323.724,60.8ZM167.213,261.768C225.162,222.589,285.829,192.094,353.269,175c-6.639-16.888-13.054-32.753-19.067-48.77-1.89-5.033-4.249-6.693-9.571-4.8-20.155,7.162-40.792,13.11-60.552,21.21-39.385,16.144-75.857,37.72-110.234,62.783-1.836,1.339-3.954,4.8-3.423,6.486C155.567,228.2,161.251,244.329,167.213,261.768Zm92.231-1.633c8.6-7.785,16.421-14.877,24.259-21.946,6.527-5.888,13.635-11.249,19.475-17.751,6.838-7.614,10.537-17.029,12.767-29.491-17.16,7.108-32.389,13.072-47.336,19.678a557.435,557.435,0,0,0-93.722,53.109c-2.462,1.719-5.333,5.557-5.042,8.066a75.241,75.241,0,0,0,16,39.1c9.226,11.548,22.5,19.96,26.607,36.3,11.012-10.316,17-22.015,21.543-34.675,3.113-8.681,3.621-17.077-1.48-25.247a8.635,8.635,0,0,1-1.007-3.412c-1.273-9.943-.308-19.26,8.858-25.446C247.669,253.5,254.4,256.068,259.444,260.135Zm199.4,249.106c15.785,4.16,30.685,3.4,44.735-4.789a186.571,186.571,0,0,1,19.652-10.2c5.539-2.4,8.824-6.44,8.569-11.931a138.988,138.988,0,0,0-3.435-25.184c-1.385-5.9-3.7-11.018,4.065-14.031,1.012-.392,1.827-2.726,1.712-4.074-.074-.869-1.916-1.985-3.134-2.267a25.673,25.673,0,0,0-5.7-.253c-36.971-.027-73.943-.112-110.913.077-2.824.015-7.972,1.832-8.051,3.064-.333,5.265,4.4,5.1,8.164,5.421,1.9.161,3.814.076,5.722.077,25.522.02,51.044,0,76.566.1a69.751,69.751,0,0,1,8.5,1.044l.044,2.6a63.35,63.35,0,0,1-8.232,1.076c-25.283.079-50.567-.04-75.849.147-2.812.02-7.443.849-8.122,2.545-4.546,11.363-7.735,23.155-3.284,35.377.533,1.464,3.191,3.422,4.461,3.164,21.918-4.451,44.906-.489,66.422-8.52,2.659-.992,8.915.516,9.278,1.941.853,3.346.438,8.81-1.793,10.777-4.833,4.261-10.966,7.2-16.879,10.033C467.458,507.286,463.03,508.009,458.845,509.241Zm-295.2-235.1c-9.9,9.786-15.757,20.418-18.248,32.871-4.779,23.888,9.069,48.085,30.962,54.544,11.153,3.29,20.09-1.55,28.371-7.856,1.551-1.181,2.273-5.774,1.248-7.6-3.682-6.544-7.555-13.259-12.678-18.655-10.112-10.653-19.566-21.568-24.466-35.663C166.982,286.458,165.63,280.954,163.646,274.142Zm104.188-14.036,1.235.742c10.979-5.153,22-10.219,32.929-15.475,22.82-10.974,40.319-27.009,48.344-51.768,1.232-3.8,1.667-7.863,2.805-13.444-10.87,3.332-19.8,5.8-28.471,8.948-1.8.652-3.4,3.708-3.843,5.907-3.718,18.513-13.848,32.676-28.832,43.711-5.183,3.817-10.513,7.475-15.382,11.663C273.334,253.215,270.738,256.839,267.834,260.106ZM420.425,430.638c4.123.211,6.859.469,9.6.473,20.472.028,40.955-.389,61.41.192,8.249.235,13.578-2.526,17.85-11.237-7.356-2.716-14.424-5.827-21.779-7.932-12.57-3.6-12.947-4.108-5.646-14.425.206-.291-.027-.893-.082-1.776h-24.5c1.3,1.965,1.772,2.768,2.327,3.512,5.368,7.189,4.333,9.751-4.642,11.851a68.323,68.323,0,0,0-10.272,2.936C435.986,417.782,427.357,421.555,420.425,430.638ZM155,274.04c-16.643,3.737-30.062,25.494-28.517,45.054,1.609,20.384,18.23,40.9,33.946,41.892C134.89,338.428,131.8,305.134,155,274.04Zm362.817,146.6,1.556,1.579a52.358,52.358,0,0,0,4.3-3.047q14.063-12.143,28.036-24.387c1.963-1.721,4.221-3.37,5.468-5.553a6.547,6.547,0,0,0-.079-5.65c-.546-.912-3.771-1.24-5.012-.507a34.008,34.008,0,0,0-7.631,6.342c-7.709,8.441-15.254,17.034-22.777,25.642A57.93,57.93,0,0,0,517.818,420.638Z"/><path class="cls-1" d="M502.466,285.74c0,2.6.1,3.688-.016,4.752-.919,8.321,1.386,12.741,8.1,15.418,6.662,2.656,13.928.491,18.432-5.492a21.922,21.922,0,0,0,.171-26.05c-6.148-8.682-17.62-12.192-28.059-8.585-11.807,4.078-19.068,14.125-19.846,27.9-.281,4.991.625,10.109-.121,15-1.276,8.364-2.227,17.1-5.466,24.771-6.213,14.717-17.566,28.024-7.673,45.991l-3.376.411c-1.469-3.322-3.638-6.516-4.271-9.99-1.6-8.754.461-17.049,4.821-24.763a37.368,37.368,0,0,0,3.808-28.33c-3.452-13.961-17.231-22.244-29.3-17.63-9.029,3.453-13.806,13.306-10.339,21.325,2.8,6.472,9.9,9.963,15.778,7.754,5.476-2.059,6.765-6.448,4.192-14.273,4.551-.164,5.778,1,6,5.668.4,8.468-8.357,15.255-17.222,13.345-9.026-1.944-14.4-9.211-13.963-18.874a20.623,20.623,0,0,1,18.1-19.9c14.993-1.721,26.56,6.3,30.373,21.085.63,2.445,1.21,4.9,2.3,9.341,4.6-11.331,2.981-20.439-1.542-28.636-3.86-7-9.458-13.032-14.255-19.516-5.923-8.009-12.708-15.549-17.486-24.194a36.587,36.587,0,0,1-1.232-33.805c7.233-15.9,26-21.659,40.338-12.79,10.917,6.753,14.449,22,7.577,32.693-5.151,8.016-16.7,10.818-24.613,5.7-3.491-2.258-6.614-5.119-4.853-10.858,1.229.886,2.246,1.229,2.541,1.893,3.018,6.8,8.294,8.93,15.2,7.24,6.222-1.523,10.872-7.919,11.274-14.994.483-8.5-3.361-14.794-10.429-18.993-7.931-4.711-16.014-3.967-23.7.8-11.475,7.117-15.614,22.238-10.234,37.65a34.476,34.476,0,0,0,5.065,10.185c9.022,11.282,18.421,22.262,28.259,34.048,1.047-3.605,1.779-6.522,2.738-9.363,4.189-12.412,17.038-21.528,30.135-21.456,12.24.067,22.646,7.381,26.266,18.461,5.85,17.9-6.272,34.419-23.515,31.921-6.069-.88-10.882-3.94-12.864-9.955C498.024,295.98,497.348,291.085,502.466,285.74Z"/><path class="cls-1" d="M539.65,208.887c1.914,23.791-22.424,47.931-45.5,45.661C489.174,231.311,513.8,207.835,539.65,208.887Zm-39.159,33.128c7.071-4.324,10.674-12.206,18.516-13.83l1.77,1.917-17.47,17.417c15.635-1.219,31.737-19.544,30.189-32.99C516.324,216.831,503.352,227.37,500.491,242.015Z"/><path class="cls-1" d="M492.867,321.247c10.7,12.753-1.38,33.789-18.264,43.178C483.2,351.134,498.978,340.786,492.867,321.247Z"/><path class="cls-1" d="M142.112,641.366l4.62,2.529a14.924,14.924,0,0,1-5.555,4.346,21.288,21.288,0,0,1-9.405,1.815q-9.021,0-14.025-4.29t-5-12.32a18.656,18.656,0,0,1,1.485-7.426,17.01,17.01,0,0,1,5.17-6.434,40.49,40.49,0,0,1,10.285-5.61l12.32-4.84v8.8l-10.34,3.85q-5.94,2.2-8.25,4.95a9.338,9.338,0,0,0-2.31,6.159,7.322,7.322,0,0,0,2.75,6.051q2.748,2.2,8.14,2.31a18.126,18.126,0,0,0,6.545-1.045,23.478,23.478,0,0,0,4.785-2.475l-2.31,6.27v-38.28q0-3.63,4.07-3.63a10.922,10.922,0,0,1,2.42.275,13.177,13.177,0,0,1,1.76.5v35.2q0,4.071,2.2,5.665a10.553,10.553,0,0,0,6.27,1.6h.77v8.8h-1.32a17.421,17.421,0,0,1-9.9-2.86Q142.992,648.407,142.112,641.366Zm-6.49-47.63a5.235,5.235,0,0,1-3.96-1.485,5.4,5.4,0,1,1,7.92,0A5.241,5.241,0,0,1,135.622,593.736Zm15.4,0a5.235,5.235,0,0,1-3.96-1.485,5.4,5.4,0,1,1,7.92,0A5.241,5.241,0,0,1,151.022,593.736Zm7.48,60.39v-8.8a6.684,6.684,0,0,1,.77,1.76,9.268,9.268,0,0,1,.33,2.64,8.545,8.545,0,0,1-.385,2.7A9.193,9.193,0,0,1,158.5,654.126Z"/><path class="cls-1" d="M166.969,610.784a8.486,8.486,0,0,1-5.829-2.144q-2.421-2.147-2.421-6.656,0-4.728,1.486-6.325a4.4,4.4,0,0,1,3.244-1.6,3.288,3.288,0,0,1,1.046.165,3.59,3.59,0,0,1,.825.385,20.6,20.6,0,0,0-.825,2.641,12.6,12.6,0,0,0-.385,3.079,7.439,7.439,0,0,0,.88,4.07,2.858,2.858,0,0,0,2.53,1.321,2.936,2.936,0,0,0,2.53-1.045,4.636,4.636,0,0,0,.77-2.806v-5.39a6.154,6.154,0,0,1,1.484-.439,9.234,9.234,0,0,1,1.375-.11,8.284,8.284,0,0,1,1.981.219l.66,5.281a3.5,3.5,0,0,0,1.1,2.2,3.066,3.066,0,0,0,2.09.769,2.709,2.709,0,0,0,2.584-1.264,6.538,6.538,0,0,0,.716-3.245,20.491,20.491,0,0,0-.55-4.18,14.373,14.373,0,0,0-1.1-3.521,3.87,3.87,0,0,1,1.1-.549,4.479,4.479,0,0,1,1.43-.22,3.79,3.79,0,0,1,3.19,2.034q1.32,2.037,1.319,7.315,0,4.732-2.419,6.71a8.6,8.6,0,0,1-5.61,1.981,7.716,7.716,0,0,1-4.29-1.21,5.719,5.719,0,0,1-2.42-3.851l.77.66a5.855,5.855,0,0,1-1.98,3.906A7.273,7.273,0,0,1,166.969,610.784Z"/><path class="cls-1" d="M156.74,654.126v-8.8h1.76q5.829,0,8.69-2.53t2.97-8.03l.22-13.42a10.889,10.889,0,0,1,1.54-.55,7.993,7.993,0,0,1,2.31-.33,3.846,3.846,0,0,1,2.75.935,3.384,3.384,0,0,1,.99,2.585l.22,11.33q.108,5.059,3.026,7.535t8.634,2.475h1.761v8.8H189.63a21.826,21.826,0,0,1-7.15-1.1,13.4,13.4,0,0,1-5.335-3.3,13.12,13.12,0,0,1-3.134-5.5h.549a8.3,8.3,0,0,1-2.695,5.39,15.668,15.668,0,0,1-5.885,3.355,23.485,23.485,0,0,1-7.369,1.155Zm9.791,19.47a5.235,5.235,0,0,1-3.96-1.485,5.395,5.395,0,1,1,7.919,0A5.239,5.239,0,0,1,166.531,673.6Zm15.4,0a5.237,5.237,0,0,1-3.96-1.485,5.4,5.4,0,1,1,7.92,0A5.241,5.241,0,0,1,181.93,673.6Zm9.681-19.47v-8.8a6.685,6.685,0,0,1,.769,1.76,9.268,9.268,0,0,1,.33,2.64,8.545,8.545,0,0,1-.385,2.7A9.2,9.2,0,0,1,191.611,654.126Z"/><path class="cls-1" d="M189.85,654.126v-8.8h1.76q5.829,0,8.69-2.53t2.97-8.03l.22-13.42a10.841,10.841,0,0,1,1.54-.55,7.983,7.983,0,0,1,2.31-.33,3.849,3.849,0,0,1,2.75.935,3.384,3.384,0,0,1,.99,2.585l.22,11.33q.108,5.059,3.025,7.535t8.635,2.475h1.76v8.8h-1.98a21.826,21.826,0,0,1-7.15-1.1,13.4,13.4,0,0,1-5.335-3.3,13.122,13.122,0,0,1-3.135-5.5h.55a8.305,8.305,0,0,1-2.695,5.39,15.668,15.668,0,0,1-5.885,3.355,23.5,23.5,0,0,1-7.37,1.155ZM207.34,612a5.293,5.293,0,1,1,4.07-1.54A5.5,5.5,0,0,1,207.34,612Zm17.38,42.13v-8.8a6.684,6.684,0,0,1,.77,1.76,9.268,9.268,0,0,1,.33,2.64,8.545,8.545,0,0,1-.385,2.7A9.193,9.193,0,0,1,224.72,654.126Z"/><path class="cls-1" d="M261.679,655.556A36.544,36.544,0,0,1,252,654.291a36.926,36.926,0,0,1-8.8-3.685l6.491-2.2a23.034,23.034,0,0,1-7.2,3.355,56.609,56.609,0,0,1-8.636,1.815,58.52,58.52,0,0,1-7.259.55h-3.63v-8.8h4.84q1.869,0,4.62-.11t5.554-.33a39.4,39.4,0,0,0,4.455-.55l-3.08,2.64a27.884,27.884,0,0,1-6.764-6.985,18.285,18.285,0,0,1-2.915-10.615,16.86,16.86,0,0,1,2.255-8.965,14.544,14.544,0,0,1,6.27-5.61,20.746,20.746,0,0,1,9.075-1.925l9.02,4.07a14.12,14.12,0,0,1,3.9,3.245,14.622,14.622,0,0,1,2.475,4.345,15.7,15.7,0,0,1,.88,5.39,17.8,17.8,0,0,1-3.355,11.11,22.522,22.522,0,0,1-8.085,6.71l-2.09-2.42a16.351,16.351,0,0,0,5.06,1.65,37.4,37.4,0,0,0,6.6.55,16.882,16.882,0,0,0,6.216-1.1,9.8,9.8,0,0,0,4.454-3.355A9.529,9.529,0,0,0,274,637.3a16.181,16.181,0,0,0-4.345-10.67q-4.347-5.058-13.145-9.24l-9.46-3.41a9.985,9.985,0,0,1,.385-2.915,7.652,7.652,0,0,1,1.045-2.2,11.6,11.6,0,0,1,1.21-1.485,63.46,63.46,0,0,1,18.04,7.865,34.717,34.717,0,0,1,10.725,10.725,23.952,23.952,0,0,1,3.575,12.54,16.759,16.759,0,0,1-2.311,8.8,15.684,15.684,0,0,1-6.875,6.05A25.579,25.579,0,0,1,261.679,655.556Zm-13.419-10.89-3.96-.88a35.225,35.225,0,0,0,5.444-2.641,12.034,12.034,0,0,0,4.236-4.344,14.561,14.561,0,0,0,1.65-7.425q0-4.841-2.64-7.315a9.181,9.181,0,0,0-12.541,0q-2.639,2.475-2.639,7.315a14.355,14.355,0,0,0,1.485,6.71,15.861,15.861,0,0,0,3.9,4.895A44.326,44.326,0,0,0,248.26,644.666Z"/><path class="cls-1" d="M351.989,641.366l4.62,2.529a14.924,14.924,0,0,1-5.555,4.346,21.288,21.288,0,0,1-9.4,1.815q-9.021,0-14.025-4.29t-5-12.32a18.656,18.656,0,0,1,1.485-7.426,17.01,17.01,0,0,1,5.17-6.434,40.49,40.49,0,0,1,10.285-5.61l12.32-4.84v8.8l-10.34,3.85q-5.94,2.2-8.25,4.95a9.338,9.338,0,0,0-2.31,6.159,7.322,7.322,0,0,0,2.75,6.051q2.748,2.2,8.14,2.31a18.126,18.126,0,0,0,6.545-1.045,23.478,23.478,0,0,0,4.785-2.475l-2.31,6.27v-38.28q0-3.63,4.07-3.63a10.922,10.922,0,0,1,2.42.275,13.177,13.177,0,0,1,1.76.5v35.2q0,4.071,2.2,5.665a10.553,10.553,0,0,0,6.27,1.6h.77v8.8h-1.32a17.421,17.421,0,0,1-9.9-2.86Q352.869,648.407,351.989,641.366Zm-6.49-47.63a5.235,5.235,0,0,1-3.96-1.485,5.4,5.4,0,1,1,7.92,0A5.241,5.241,0,0,1,345.5,593.736Zm15.4,0a5.235,5.235,0,0,1-3.96-1.485,5.4,5.4,0,1,1,7.92,0A5.241,5.241,0,0,1,360.9,593.736Zm7.48,60.39v-8.8a6.684,6.684,0,0,1,.77,1.76,9.268,9.268,0,0,1,.33,2.64,8.545,8.545,0,0,1-.385,2.7A9.193,9.193,0,0,1,368.379,654.126Z"/><path class="cls-1" d="M366.617,654.126v-9.02h.99a10.049,10.049,0,0,0,5.335-1.375,14.636,14.636,0,0,0,3.96-3.575,22.071,22.071,0,0,0,2.805-4.73,69.564,69.564,0,0,1,6.656-11.605,23.546,23.546,0,0,1,7.259-6.765,17.289,17.289,0,0,1,8.635-2.2,17.738,17.738,0,0,1,9.515,2.42,18.107,18.107,0,0,1,6.27,6.6,27.041,27.041,0,0,1,3.135,9.57q.879,5.94,3.245,8.91t8.635,2.97h.44v8.8h-.549a24.5,24.5,0,0,1-6.71-.935,13.308,13.308,0,0,1-5.665-3.19,11.1,11.1,0,0,1-3.136-6l.99.88a10.494,10.494,0,0,1-5.06,6.49q-4.182,2.64-10.78,2.64a26.009,26.009,0,0,1-8.69-1.43,21.251,21.251,0,0,1-6.985-3.96,18.253,18.253,0,0,1-4.455-5.61l1.761.99a23.517,23.517,0,0,1-6.381,7.26q-3.852,2.862-10.34,2.86Zm36.63-8.69a12.1,12.1,0,0,0,7.15-2.09,7.048,7.048,0,0,0,2.97-6.16,19.664,19.664,0,0,0-1.1-6.545,11.665,11.665,0,0,0-3.52-5.17,9.762,9.762,0,0,0-6.49-2.035,10.88,10.88,0,0,0-8.414,4.07,34.381,34.381,0,0,0-6,10.23,18.325,18.325,0,0,0,6.545,5.61A18.875,18.875,0,0,0,403.247,645.436Zm30.25,8.69v-8.8a6.684,6.684,0,0,1,.77,1.76,9.232,9.232,0,0,1,.33,2.64,8.516,8.516,0,0,1-.385,2.7A9.125,9.125,0,0,1,433.5,654.126Z"/><path class="cls-1" d="M484.1,654.126a56.211,56.211,0,0,1-16-1.7,35.674,35.674,0,0,1-10.835-5.115h4.29a27.733,27.733,0,0,1-7.315,3.63,57.451,57.451,0,0,1-9.46,2.365,59.21,59.21,0,0,1-9.625.825h-3.41v-8.8h4.62q2.97,0,6.49-.22t6.655-.715a23.391,23.391,0,0,0,4.785-1.155l-2.09,2.31a21.221,21.221,0,0,1-7.315-6q-3.357-4.125-3.355-10.725a19.145,19.145,0,0,1,2.31-9.515,17.625,17.625,0,0,1,6.27-6.545,16.95,16.95,0,0,1,9.02-2.42,17.244,17.244,0,0,1,9.075,2.42,17.492,17.492,0,0,1,6.325,6.545,19.145,19.145,0,0,1,2.31,9.515,17.522,17.522,0,0,1-1.595,7.7,17.806,17.806,0,0,1-4.015,5.5,22.464,22.464,0,0,1-5.06,3.52l-3.08-2.53a60.468,60.468,0,0,0,9.57,1.87,104.559,104.559,0,0,0,10.45.44h2.75v8.8Zm-32.67-52.14a5.235,5.235,0,0,1-3.96-1.485,5.4,5.4,0,1,1,7.92,0A5.241,5.241,0,0,1,451.427,601.986Zm7.7,39.49a19.747,19.747,0,0,0,6.655-4.62,11.063,11.063,0,0,0,2.805-7.92,9.671,9.671,0,0,0-2.805-7.041,9.014,9.014,0,0,0-6.655-2.859,8.892,8.892,0,0,0-6.545,2.859,9.671,9.671,0,0,0-2.805,7.041,11.6,11.6,0,0,0,2.75,8.03A16.333,16.333,0,0,0,459.127,641.476Zm7.7-39.49a5.235,5.235,0,0,1-3.96-1.485,5.4,5.4,0,1,1,7.92,0A5.241,5.241,0,0,1,466.827,601.986Zm19.03,52.14v-8.8a6.684,6.684,0,0,1,.77,1.76,9.268,9.268,0,0,1,.33,2.64,8.545,8.545,0,0,1-.385,2.7A9.193,9.193,0,0,1,485.857,654.126Z"/><path class="cls-1" d="M484.1,654.126v-8.8h2.86a10.045,10.045,0,0,0,6.215-1.65q2.145-1.65,2.145-5.281l-.44-57.419a12.79,12.79,0,0,1,1.815-.5,12.211,12.211,0,0,1,2.585-.275q4.29,0,4.29,3.74l-.11,54.449q0,6.164-2.475,9.625a12.719,12.719,0,0,1-6.27,4.786,23.135,23.135,0,0,1-7.645,1.32Z"/><text class="cls-2" transform="translate(64.729 783.849)">Lokma Hanya</text><path class="cls-1" d="M300.372,692.128c-.6-.279-1.387-.4-1.765-.862-3.906-4.747-9.27-3.628-14.339-3.63q-135.106-.043-270.214.046c-2.487,0-4.912,2-7.477,2.54-2,.424-4.588.7-6.114-.242-.893-.554-.215-3.64-.243-5.587,2.069,0,4.208-.34,6.189.076,2.4.5,4.656,2.4,6.977,2.4q137.855.179,275.71.048c1.942,0,4.305.095,5.74-.9,3.327-2.317,6.179-4.644,10.035-.894.444.431,2.45-1.127,3.554-.9,1.593.328,3.024,1.446,4.524,2.227-.867,1.444-1.55,3.943-2.637,4.133-3.194.557-6.548.2-9.839.2Q300.422,691.453,300.372,692.128Z"/><path class="cls-1" d="M621.454,687.385c-1.283,1.5-2.121,3.378-3.363,3.7-1.493.387-3.376-.409-5.007-.945-2.219-.728-4.358-2.446-6.534-2.45q-130.078-.228-260.157-.155c-1.631,0-3.633-.118-4.823.723-3.462,2.444-6.562,5.414-10.741,1.209-.241-.243-1.485.774-2.194.682a15.115,15.115,0,0,1-5.064-1.306c-.483-.255-.391-3.066-.043-3.184a22.762,22.762,0,0,1,5.2-.773c.269-.025.743.519.835.445,7.039-5.71,12.767,1.975,19.511,1.939,85.385-.46,170.773-.307,256.161-.294,3.143,0,6.206.409,8.452-2.834.62-.895,3.2-1.164,4.473-.666S620.19,685.79,621.454,687.385Z"/><path class="cls-1" d="M322.163,679.743l-4.041,3.5c-1.065-1.246-2.742-2.394-2.964-3.776-.134-.834,1.926-2.731,3.128-2.849C319.293,676.516,320.485,678.3,322.163,679.743Z"/><path class="cls-1" d="M322.181,695.385c-1.957,1.156-3.231,2.514-4.211,2.327-1.092-.209-1.915-1.822-2.856-2.823,1.037-.889,2.059-2.453,3.113-2.474S320.352,693.924,322.181,695.385Z"/></g></g></svg>