<svg xmlns="http://www.w3.org/2000/svg" viewBox="0 0 621.454 815.42"><path class="cls-1" d="M457.1 405.378c-1.643-2.085-2.563-3.123-3.339-4.259-3.556-5.2-1.78-10.386 4.425-10.915a133.5 133.5 0 0 1 23.574-.03c7.545.7 8.195 5.608 2.334 14.28 9.085 3.824 18.089 7.839 27.319 11.244 1.306.482 4.121-1.635 5.537-3.188 7.391-8.108 14.494-16.479 21.832-24.637a64 64 0 0 1 8.269-7.882c4.578-3.537 9.733-4.7 14.159-.008 4.468 4.733 2.888 9.768-1.043 14.022a111 111 0 0 1-9.059 8.088c-7.383 6.41-14.861 12.714-22.149 19.23-4.651 4.158-4.024 6.947 1.716 9.1 11.019 4.135 12.129 9.392 4.233 18.181-1.239 1.379-1.574 4.229-1.252 6.225.945 5.852 2.9 11.563 3.571 17.431.633 5.57.136 11.269.136 16.283l9.783 7.767c-2.906 3.218-5.367 7.046-8.8 9.542-11.558 8.412-23.376 16.475-35.254 24.435-13.32 8.925-28.3 12.157-44.137 12.208-8.113.025-16.229.038-24.337.284-11.752.357-21.894 4.332-29.44 13.773-2.531 3.165-4.936 6.454-7.717 9.384-1.092 1.15-3.056 1.473-4.623 2.173.071-1.663-.473-3.725.307-4.93 10.163-15.693 23.481-26.15 43.329-25.677 7.391.176 14.8-.32 22.19-.11a70.5 70.5 0 0 0 41.38-11.531c13.686-8.923 27.065-18.318 40.578-27.507l-1.077-3.011c-4.058.791-8.419.9-12.106 2.525a163 163 0 0 0-18.87 10.15c-19.143 11.673-39.492 10.717-60.219 6.092-1.664-.371-3.134-1.611-6.253-3.283 3.6-2.184 5.7-4.059 8.156-4.834 6.8-2.151 13.787-3.73 20.635-5.751 6.229-1.838 11.968-4.511 16.193-12.522-4.182.342-6.961.464-9.712.811-14.36 1.812-28.684 4.9-43.075 5.237-20.273.482-35.914 7.991-47.358 24.614-4.6 6.676-9.13 13.428-14.2 19.736-16.6 20.644-37.614 26.625-60.981 14.265-20.12-10.643-38.744-24.193-57.659-37-16.807-11.382-33.235-23.332-53.273-28.53-27.728-7.193-51.384-1.147-69.741 21.84-1.224 1.533-3.245 2.43-4.895 3.622l-1.678-1.207c.788-3.072 1.33-6.233 2.4-9.2 9.416-26.075 23.534-49.347 41.481-70.466 14.049-16.534 28.1-33.2 35.051-54.329 1.607-4.879 2.516-9.987 4.3-17.223-22.023 11.678-42.413 13.9-62.455.877-11.3-7.342-18.465-17.824-22.135-30.64-8.078-28.2 5.776-52.159 38.886-66.171l-10.565-30.768c-7.649 2.625-14.578 5.8-21.854 7.359a60.12 60.12 0 0 1-68.332-35.62C50.269 178.232 60.11 147.15 84.92 130.74c3.758-2.486 7.7-5.279 11.945-6.316 7.872-1.921 9.839-6.989 11.144-14.168 10.15-55.845 64.5-90.659 119.4-76.419 5.921 1.536 8.923.089 12.65-4.2 13.5-15.526 29.606-26.884 50.8-29.223 39.073-4.314 71.716 25.825 70.705 65.276-.468 18.269-7.119 33.968-20.219 46.618-3.94 3.8-4.35 6.755-2.318 11.687 6.8 16.515 12.791 33.364 19.554 49.9 4.038 9.87 10.732 18.992 12.974 29.168 2.5 11.371 1.438 23.552 1.68 35.385.081 3.956-.592 7.927-1.007 12.934l12.2-3.274 1.229 2.185-12.625 8.776c3.921 5.758 8.084 11.927 12.323 18.043a28.6 28.6 0 0 0 2.891 3.169c12.259 12.94 11.89 16.791-3.076 25.905-3.751 2.285-4.393 4.71-2.168 8.14 3 4.632 1.349 8.5.236 13.617-1.661 7.63-3.612 14.044-8.948 19.785-1.191 1.282.086 5.027.5 7.6 2.1 13.147-4.684 22.5-18.07 22.558-9.882.04-19.867-1.713-29.635-3.567-10.633-2.018-15.475-1.02-21.182 8.137a118.36 118.36 0 0 0-17.55 53.818c-.449 5.733 2.517 12.512 5.782 17.623 14.483 22.666 29.791 44.8 44.444 67.364 3.312 5.1 5.2 11.125 7.741 16.724l-2.95 1.631c-1.454-1.7-3.417-3.169-4.284-5.127a284.9 284.9 0 0 0-43.542-68.645c-12.031-14.2-14.931-28.511-10.358-46.2 5.5-21.262 11.419-35.268 24.966-50.109-13.722-6.411-27.578-12.6-34.895-26.527l1.354-2.016c1.708.95 3.806 1.541 5.068 2.9 19.946 21.557 46.022 27.717 73.786 28.764 10.8.408 15.466-6.313 13.712-16.846-1.124-6.75-1.989-13.063 5.419-17.643 1.383-.855-.218-6.533-.527-11.3a14 14 0 0 1 2.453-1.735c3.355-1.854 3.89-3.945 2.069-7.56-4.867-9.665-3.84-12.13 6.026-17.259 8.315-4.322 8.606-6 2.333-13.1q-4.266-4.824-8.452-9.718c-9.949-11.588-13.46-24.593-10.5-39.866 3.692-19.048-.533-39.233-9.389-50.53-.476.521-1.216.956-1.35 1.532-7.3 31.279-28.246 50.407-56.255 63.256-3.681 1.688-7.638 2.878-11.1 4.921-9.029 5.328-17.855 11-27.649 17.09-.448-.789-1.286-3.635-3.171-5.282-3.2-2.79-7.228-6.9-10.584-6.62-3.763.317-8.673 4.161-10.444 7.766-5.388 10.966 4.225 33.456 15.926 37.572 3.316 1.166 7.758-.867 14.2-1.8-2.582 3.188-3.705 5.772-5.643 6.76-8.5 4.335-14.284-1.636-20.609-6.589-2.511 6.748-3.961 13.631-7.421 19.285-6.3 10.287-15.3 19.135-20.353 29.9-5.046 10.747-4.708 24.137-10.212 34.525-7.956 15.018-18.492 28.806-28.947 42.33-12.711 16.442-25.663 32.614-34.353 51.677-1.242 2.724-2.289 5.537-3.966 9.623a26 26 0 0 0 3.832-1.545c26.064-18.116 53.357-16.1 79.962-2.726 16.5 8.289 31.464 19.649 47.012 29.792 12.972 8.463 25.457 17.733 38.814 25.519 6.818 3.974 14.923 6.15 22.722 7.938 13.2 3.028 24.758-1.451 33.707-11.109 6.931-7.48 12.232-16.452 19.008-24.1 6.4-7.222 13.865-13.5 20.662-20.383 1.361-1.379 3.007-4.068 2.517-5.433-4.189-11.672-2.5-23.069 1.086-34.365 1.273-4.014 1.217-6.626-2.3-9.892-6.2-5.749-3.7-13.2 4.485-15.631 2-.594 4.4-1.165 5.709-2.585 11.391-12.39 25.648-19.525 43.206-23.147M323.724 60.8l2.574.587c-.3 18.406-6.29 36.2-8.052 57.042 6.81-3.035 13.317-4.262 17.3-8.105a69.8 69.8 0 0 0 14.592-20.042c10.534-22.442 8.6-44.477-7.329-63.634C327.18 7.851 306.568.916 282.486 7.408c-21.757 5.866-36.116 21.218-48.653 38.9-6.466 9.118-13.083 18.278-20.782 26.319-4.946 5.167-11.864 8.534-18.167 12.254-1.593.94-4.213.141-6.361.141l-1-2.361c20.725-7.395 31.833-24.122 43.039-41.631-13.483-5.915-27.074-6.569-40.482-4.308-41.716 7.035-71.792 37.821-77.739 79.557-.977 6.858-3.544 9.548-9.8 11.648-24.9 8.363-42.138 32.877-40.4 56.4 3.089 41.876 46.041 65.19 82.94 44.977 1.361-.745 3.021-1.877 3.461-3.191 1.268-3.787-6.06-17.476-10.039-19.115-11.009-4.534-22.1-8.86-33.038-13.566-1.73-.745-2.792-3.039-4.163-4.617 2.1-.126 4.479-.956 6.265-.263 10.434 4.045 20.924 8.044 31 12.887 5.623 2.7 9.462 1.559 14.208-1.782 12.66-8.912 25.71-17.271 38.6-25.864 1.9-1.27 3.756-2.619 6.431-4.49-3.23-2.87-5.805-5.248-8.476-7.513-8.912-7.559-17.934-14.989-26.715-22.7-1.478-1.3-1.966-3.722-2.912-5.626 2 .512 4.473.448 5.937 1.629 10.944 8.836 21.853 17.734 32.413 27.021 3.862 3.4 6.795 3.654 11.355 1.289 16.7-8.66 33.5-17.171 50.611-24.968 5.368-2.445 6.329-5.071 5.235-10.24q-4.434-20.955-8.193-42.051c-.556-3.116.169-6.46.3-9.7 1.617 2.962 4.043 5.753 4.714 8.915 3.3 15.54 6.134 31.179 9.3 47.645 13.39-4.574 26-8.706 38.415-13.345 1.531-.572 2.559-3.748 2.963-5.88 2.929-15.438 5.583-30.928 8.475-46.373.418-2.276 1.642-4.406 2.496-6.606M167.213 261.768c57.949-39.179 118.616-69.674 186.056-86.768-6.639-16.888-13.054-32.753-19.067-48.77-1.89-5.033-4.249-6.693-9.571-4.8-20.155 7.162-40.792 13.11-60.552 21.21-39.385 16.144-75.857 37.72-110.234 62.783-1.836 1.339-3.954 4.8-3.423 6.486 5.145 16.291 10.829 32.42 16.791 49.859m92.231-1.633c8.6-7.785 16.421-14.877 24.259-21.946 6.527-5.888 13.635-11.249 19.475-17.751 6.838-7.614 10.537-17.029 12.767-29.491-17.16 7.108-32.389 13.072-47.336 19.678a557.4 557.4 0 0 0-93.722 53.109c-2.462 1.719-5.333 5.557-5.042 8.066a75.24 75.24 0 0 0 16 39.1c9.226 11.548 22.5 19.96 26.607 36.3 11.012-10.316 17-22.015 21.543-34.675 3.113-8.681 3.621-17.077-1.48-25.247a8.6 8.6 0 0 1-1.007-3.412c-1.273-9.943-.308-19.26 8.858-25.446 7.303-4.92 14.034-2.352 19.078 1.715m199.4 249.106c15.785 4.16 30.685 3.4 44.735-4.789a187 187 0 0 1 19.652-10.2c5.539-2.4 8.824-6.44 8.569-11.931a139 139 0 0 0-3.435-25.184c-1.385-5.9-3.7-11.018 4.065-14.031 1.012-.392 1.827-2.726 1.712-4.074-.074-.869-1.916-1.985-3.134-2.267a25.7 25.7 0 0 0-5.7-.253c-36.971-.027-73.943-.112-110.913.077-2.824.015-7.972 1.832-8.051 3.064-.333 5.265 4.4 5.1 8.164 5.421 1.9.161 3.814.076 5.722.077 25.522.02 51.044 0 76.566.1a70 70 0 0 1 8.5 1.044l.044 2.6a63 63 0 0 1-8.232 1.076c-25.283.079-50.567-.04-75.849.147-2.812.02-7.443.849-8.122 2.545-4.546 11.363-7.735 23.155-3.284 35.377.533 1.464 3.191 3.422 4.461 3.164 21.918-4.451 44.906-.489 66.422-8.52 2.659-.992 8.915.516 9.278 1.941.853 3.346.438 8.81-1.793 10.777-4.833 4.261-10.966 7.2-16.879 10.033-3.884 1.851-8.312 2.574-12.497 3.806Zm-295.2-235.1c-9.9 9.786-15.757 20.418-18.248 32.871-4.779 23.888 9.069 48.085 30.962 54.544 11.153 3.29 20.09-1.55 28.371-7.856 1.551-1.181 2.273-5.774 1.248-7.6-3.682-6.544-7.555-13.259-12.678-18.655-10.112-10.653-19.566-21.568-24.466-35.663-1.851-5.324-3.203-10.828-5.187-17.64Zm104.188-14.036 1.235.742c10.979-5.153 22-10.219 32.929-15.475 22.82-10.974 40.319-27.009 48.344-51.768 1.232-3.8 1.667-7.863 2.805-13.444-10.87 3.332-19.8 5.8-28.471 8.948-1.8.652-3.4 3.708-3.843 5.907-3.718 18.513-13.848 32.676-28.832 43.711-5.183 3.817-10.513 7.475-15.382 11.663-3.283 2.826-5.879 6.45-8.783 9.717Zm152.593 170.533c4.123.211 6.859.469 9.6.473 20.472.028 40.955-.389 61.41.192 8.249.235 13.578-2.526 17.85-11.237-7.356-2.716-14.424-5.827-21.779-7.932-12.57-3.6-12.947-4.108-5.646-14.425.206-.291-.027-.893-.082-1.776h-24.5c1.3 1.965 1.772 2.768 2.327 3.512 5.368 7.189 4.333 9.751-4.642 11.851a68 68 0 0 0-10.272 2.936c-8.705 3.55-17.334 7.323-24.266 16.406M155 274.04c-16.643 3.737-30.062 25.494-28.517 45.054 1.609 20.384 18.23 40.9 33.946 41.892C134.89 338.428 131.8 305.134 155 274.04m362.817 146.6 1.556 1.579a52 52 0 0 0 4.3-3.047q14.063-12.143 28.036-24.387c1.963-1.721 4.221-3.37 5.468-5.553a6.55 6.55 0 0 0-.079-5.65c-.546-.912-3.771-1.24-5.012-.507a34 34 0 0 0-7.631 6.342c-7.709 8.441-15.254 17.034-22.777 25.642a58 58 0 0 0-3.86 5.579Z"/><path class="cls-1" d="M502.466 285.74c0 2.6.1 3.688-.016 4.752-.919 8.321 1.386 12.741 8.1 15.418 6.662 2.656 13.928.491 18.432-5.492a21.92 21.92 0 0 0 .171-26.05c-6.148-8.682-17.62-12.192-28.059-8.585-11.807 4.078-19.068 14.125-19.846 27.9-.281 4.991.625 10.109-.121 15-1.276 8.364-2.227 17.1-5.466 24.771-6.213 14.717-17.566 28.024-7.673 45.991l-3.376.411c-1.469-3.322-3.638-6.516-4.271-9.99-1.6-8.754.461-17.049 4.821-24.763a37.37 37.37 0 0 0 3.808-28.33c-3.452-13.961-17.231-22.244-29.3-17.63-9.029 3.453-13.806 13.306-10.339 21.325 2.8 6.472 9.9 9.963 15.778 7.754 5.476-2.059 6.765-6.448 4.192-14.273 4.551-.164 5.778 1 6 5.668.4 8.468-8.357 15.255-17.222 13.345-9.026-1.944-14.4-9.211-13.963-18.874a20.62 20.62 0 0 1 18.1-19.9c14.993-1.721 26.56 6.3 30.373 21.085.63 2.445 1.21 4.9 2.3 9.341 4.6-11.331 2.981-20.439-1.542-28.636-3.86-7-9.458-13.032-14.255-19.516-5.923-8.009-12.708-15.549-17.486-24.194a36.59 36.59 0 0 1-1.232-33.805c7.233-15.9 26-21.659 40.338-12.79 10.917 6.753 14.449 22 7.577 32.693-5.151 8.016-16.7 10.818-24.613 5.7-3.491-2.258-6.614-5.119-4.853-10.858 1.229.886 2.246 1.229 2.541 1.893 3.018 6.8 8.294 8.93 15.2 7.24 6.222-1.523 10.872-7.919 11.274-14.994.483-8.5-3.361-14.794-10.429-18.993-7.931-4.711-16.014-3.967-23.7.8-11.475 7.117-15.614 22.238-10.234 37.65a34.5 34.5 0 0 0 5.065 10.185c9.022 11.282 18.421 22.262 28.259 34.048 1.047-3.605 1.779-6.522 2.738-9.363 4.189-12.412 17.038-21.528 30.135-21.456 12.24.067 22.646 7.381 26.266 18.461 5.85 17.9-6.272 34.419-23.515 31.921-6.069-.88-10.882-3.94-12.864-9.955-1.535-4.665-2.211-9.56 2.907-14.905"/><path class="cls-1" d="M539.65 208.887c1.914 23.791-22.424 47.931-45.5 45.661-4.976-23.237 19.65-46.713 45.5-45.661m-39.159 33.128c7.071-4.324 10.674-12.206 18.516-13.83l1.77 1.917-17.47 17.417c15.635-1.219 31.737-19.544 30.189-32.99-17.172 2.302-30.144 12.841-33.005 27.486m-7.624 79.232c10.7 12.753-1.38 33.789-18.264 43.178 8.597-13.291 24.375-23.639 18.264-43.178"/></svg>